#define glyph0xa7_width 8
#define glyph0xa7_height 16
static char glyph0xa7_bits[] = {
  0x00, 0x00, 0x2C, 0x18, 0x00, 0x3C, 0x66, 0x66, 0x7E, 0x06, 0x46, 0x3C, 
  0x00, 0x00, 0x00, 0x00, };
