#define glyph0xc2_width 8
#define glyph0xc2_height 16
static char glyph0xc2_bits[] = {
  0x00, 0x00, 0x00, 0x00, 0x00, 0x00, 0x00, 0x1F, 0x18, 0x18, 0x18, 0x18, 
  0x18, 0x18, 0x18, 0x18, };
