#define glyph0x4a_width 8
#define glyph0x4a_height 16
static char glyph0x4a_bits[] = {
  0x00, 0x00, 0x00, 0x60, 0x60, 0x60, 0x60, 0x60, 0x60, 0x60, 0x62, 0x3C, 
  0x00, 0x00, 0x00, 0x00, };
