#define glyph0xdf_width 8
#define glyph0xdf_height 16
static char glyph0xdf_bits[] = {
  0x05, 0x0A, 0x05, 0x0A, 0x05, 0x0A, 0x05, 0x0A, 0x05, 0x0A, 0x05, 0x0A, 
  0x05, 0x0A, 0x05, 0x0A, };
