#define glyph0x68_width 8
#define glyph0x68_height 16
static char glyph0x68_bits[] = {
  0x00, 0x00, 0x06, 0x06, 0x06, 0x3E, 0x66, 0x66, 0x66, 0x66, 0x66, 0x66, 
  0x00, 0x00, 0x00, 0x00, };
