#define glyph0xb1_width 8
#define glyph0xb1_height 16
static char glyph0xb1_bits[] = {
  0x00, 0x00, 0x24, 0x24, 0x00, 0x3C, 0x66, 0x66, 0x66, 0x66, 0x66, 0x3C, 
  0x00, 0x00, 0x00, 0x00, };
