#define glyph0x49_width 8
#define glyph0x49_height 16
static char glyph0x49_bits[] = {
  0x00, 0x00, 0x00, 0x3C, 0x18, 0x18, 0x18, 0x18, 0x18, 0x18, 0x18, 0x3C, 
  0x00, 0x00, 0x00, 0x00, };
