#define glyph0xad_width 8
#define glyph0xad_height 16
static char glyph0xad_bits[] = {
  0x00, 0x00, 0x30, 0x18, 0x00, 0x3E, 0x66, 0x66, 0x66, 0x66, 0x66, 0x66, 
  0x00, 0x00, 0x00, 0x00, };
