#define glyph0xb0_width 8
#define glyph0xb0_height 16
static char glyph0xb0_bits[] = {
  0x00, 0x00, 0x18, 0x34, 0x00, 0x3C, 0x66, 0x66, 0x66, 0x66, 0x66, 0x3C, 
  0x00, 0x00, 0x00, 0x00, };
