#define glyph0x3c_width 8
#define glyph0x3c_height 16
static char glyph0x3c_bits[] = {
  0x00, 0x00, 0x00, 0x00, 0x30, 0x18, 0x0C, 0x06, 0x0C, 0x18, 0x30, 0x00, 
  0x00, 0x00, 0x00, 0x00, };
