#define glyph0xfe_width 8
#define glyph0xfe_height 16
static char glyph0xfe_bits[] = {
  0x55, 0xAA, 0x55, 0xAA, 0x55, 0xAA, 0x55, 0xAA, 0x55, 0xAA, 0x55, 0xAA, 
  0x55, 0xAA, 0x55, 0xAA, };
