#define glyph0xfa_width 8
#define glyph0xfa_height 16
static char glyph0xfa_bits[] = {
  0x00, 0x00, 0x00, 0x30, 0x18, 0x0C, 0x06, 0x0C, 0x18, 0x36, 0x0C, 0x18, 
  0x00, 0x00, 0x00, 0x00, };
