#define glyph0x25_width 8
#define glyph0x25_height 16
static char glyph0x25_bits[] = {
  0x00, 0x00, 0x00, 0x6C, 0x6A, 0x3A, 0x36, 0x18, 0x6C, 0x5C, 0x56, 0x36, 
  0x00, 0x00, 0x00, 0x00, };
