#define glyph0xd8_width 8
#define glyph0xd8_height 16
static char glyph0xd8_bits[] = {
  0x00, 0x18, 0x34, 0x30, 0x18, 0x0C, 0x3C, 0x00, 0x00, 0x00, 0x00, 0x00, 
  0x00, 0x00, 0x00, 0x00, };
