#define glyph0xe9_width 8
#define glyph0xe9_height 16
static char glyph0xe9_bits[] = {
  0x00, 0x00, 0x00, 0x00, 0x00, 0x3C, 0x56, 0x50, 0x7C, 0x16, 0x16, 0x7C, 
  0x00, 0x00, 0x00, 0x00, };
