#define glyph0x8b_width 8
#define glyph0x8b_height 16
static char glyph0x8b_bits[] = {
  0x00, 0x00, 0x00, 0x36, 0x36, 0x26, 0x06, 0x06, 0x06, 0x06, 0x06, 0x7E, 
  0x00, 0x00, 0x00, 0x00, };
