#define glyph0xa6_width 8
#define glyph0xa6_height 16
static char glyph0xa6_bits[] = {
  0x00, 0x00, 0x30, 0x18, 0x00, 0x3C, 0x66, 0x66, 0x7E, 0x06, 0x46, 0x3C, 
  0x00, 0x00, 0x00, 0x00, };
