#define glyph0xc6_width 8
#define glyph0xc6_height 16
static char glyph0xc6_bits[] = {
  0x18, 0x18, 0x18, 0x18, 0x18, 0x18, 0x18, 0x1F, 0x18, 0x18, 0x18, 0x18, 
  0x18, 0x18, 0x18, 0x18, };
