#define glyph0x44_width 8
#define glyph0x44_height 16
static char glyph0x44_bits[] = {
  0x00, 0x00, 0x00, 0x3E, 0x66, 0x66, 0x66, 0x66, 0x66, 0x66, 0x66, 0x3E, 
  0x00, 0x00, 0x00, 0x00, };
