#define glyph0x27_width 8
#define glyph0x27_height 16
static char glyph0x27_bits[] = {
  0x00, 0x00, 0x00, 0x18, 0x18, 0x18, 0x18, 0x00, 0x00, 0x00, 0x00, 0x00, 
  0x00, 0x00, 0x00, 0x00, };
