#define glyph0x75_width 8
#define glyph0x75_height 16
static char glyph0x75_bits[] = {
  0x00, 0x00, 0x00, 0x00, 0x00, 0x66, 0x66, 0x66, 0x66, 0x66, 0x66, 0x7C, 
  0x00, 0x00, 0x00, 0x00, };
