#define glyph0xe4_width 8
#define glyph0xe4_height 16
static char glyph0xe4_bits[] = {
  0x6C, 0x36, 0x00, 0x66, 0x6E, 0x6E, 0x76, 0x76, 0x66, 0x66, 0x66, 0x66, 
  0x00, 0x00, 0x00, 0x00, };
