#define glyph0xee_width 8
#define glyph0xee_height 16
static char glyph0xee_bits[] = {
  0x00, 0x00, 0x00, 0x3C, 0x00, 0x66, 0x66, 0x66, 0x66, 0x66, 0x66, 0x7C, 
  0x00, 0x00, 0x00, 0x00, };
