#define glyph0x72_width 8
#define glyph0x72_height 16
static char glyph0x72_bits[] = {
  0x00, 0x00, 0x00, 0x00, 0x00, 0x36, 0x4E, 0x06, 0x06, 0x06, 0x06, 0x06, 
  0x00, 0x00, 0x00, 0x00, };
