#define glyph0xc8_width 8
#define glyph0xc8_height 16
static char glyph0xc8_bits[] = {
  0x18, 0x18, 0x18, 0x18, 0x18, 0x18, 0x18, 0x18, 0x18, 0x18, 0x18, 0x18, 
  0x18, 0x18, 0x18, 0x18, };
