#define glyph0xdd_width 8
#define glyph0xdd_height 16
static char glyph0xdd_bits[] = {
  0x50, 0xA0, 0x50, 0xA0, 0x50, 0xA0, 0x50, 0xA0, 0x50, 0xA0, 0x50, 0xA0, 
  0x50, 0xA0, 0x50, 0xA0, };
