#define glyph0x6f_width 8
#define glyph0x6f_height 16
static char glyph0x6f_bits[] = {
  0x00, 0x00, 0x00, 0x00, 0x00, 0x3C, 0x66, 0x66, 0x66, 0x66, 0x66, 0x3C, 
  0x00, 0x00, 0x00, 0x00, };
