#define glyph0xfb_width 8
#define glyph0xfb_height 16
static char glyph0xfb_bits[] = {
  0x00, 0x00, 0x00, 0x0C, 0x18, 0x30, 0x60, 0x30, 0x18, 0x6C, 0x30, 0x18, 
  0x00, 0x00, 0x00, 0x00, };
