#define glyph0xae_width 8
#define glyph0xae_height 16
static char glyph0xae_bits[] = {
  0x00, 0x00, 0x2C, 0x18, 0x00, 0x3E, 0x66, 0x66, 0x66, 0x66, 0x66, 0x66, 
  0x00, 0x00, 0x00, 0x00, };
