#define glyph0xb7_width 8
#define glyph0xb7_height 16
static char glyph0xb7_bits[] = {
  0x00, 0x00, 0x30, 0x18, 0x00, 0x66, 0x66, 0x66, 0x66, 0x66, 0x66, 0x7C, 
  0x00, 0x00, 0x00, 0x00, };
