#define glyph0x8c_width 8
#define glyph0x8c_height 16
static char glyph0x8c_bits[] = {
  0x00, 0x00, 0x00, 0x0C, 0x0C, 0x0C, 0x1C, 0x0E, 0x0C, 0x0C, 0x0C, 0x7C, 
  0x00, 0x00, 0x00, 0x00, };
