#define glyph0x50_width 8
#define glyph0x50_height 16
static char glyph0x50_bits[] = {
  0x00, 0x00, 0x00, 0x3E, 0x66, 0x66, 0x66, 0x3E, 0x06, 0x06, 0x06, 0x06, 
  0x00, 0x00, 0x00, 0x00, };
