#define glyph0x3d_width 8
#define glyph0x3d_height 16
static char glyph0x3d_bits[] = {
  0x00, 0x00, 0x00, 0x00, 0x00, 0x00, 0x7E, 0x00, 0x00, 0x7E, 0x00, 0x00, 
  0x00, 0x00, 0x00, 0x00, };
