#define glyph0x66_width 8
#define glyph0x66_height 16
static char glyph0x66_bits[] = {
  0x00, 0x00, 0x38, 0x4C, 0x0C, 0x0C, 0x3E, 0x0C, 0x0C, 0x0C, 0x0C, 0x0C, 
  0x00, 0x00, 0x00, 0x00, };
