#define glyph0x39_width 8
#define glyph0x39_height 16
static char glyph0x39_bits[] = {
  0x00, 0x00, 0x00, 0x3C, 0x66, 0x66, 0x66, 0x7C, 0x60, 0x60, 0x62, 0x3C, 
  0x00, 0x00, 0x00, 0x00, };
