#define glyph0x6d_width 8
#define glyph0x6d_height 16
static char glyph0x6d_bits[] = {
  0x00, 0x00, 0x00, 0x00, 0x00, 0x3E, 0x56, 0x56, 0x56, 0x56, 0x56, 0x56, 
  0x00, 0x00, 0x00, 0x00, };
