#define glyph0x52_width 8
#define glyph0x52_height 16
static char glyph0x52_bits[] = {
  0x00, 0x00, 0x00, 0x3E, 0x66, 0x66, 0x66, 0x3E, 0x66, 0x66, 0x66, 0x66, 
  0x00, 0x00, 0x00, 0x00, };
