#define glyph0x60_width 8
#define glyph0x60_height 16
static char glyph0x60_bits[] = {
  0x00, 0x00, 0x0C, 0x18, 0x30, 0x00, 0x00, 0x00, 0x00, 0x00, 0x00, 0x00, 
  0x00, 0x00, 0x00, 0x00, };
