#define glyph0x5e_width 8
#define glyph0x5e_height 16
static char glyph0x5e_bits[] = {
  0x00, 0x00, 0x00, 0x00, 0x00, 0x00, 0x00, 0x4C, 0x7E, 0x32, 0x00, 0x00, 
  0x00, 0x00, 0x00, 0x00, };
