#define glyph0x6b_width 8
#define glyph0x6b_height 16
static char glyph0x6b_bits[] = {
  0x00, 0x00, 0x06, 0x06, 0x06, 0x66, 0x66, 0x36, 0x1E, 0x36, 0x66, 0x66, 
  0x00, 0x00, 0x00, 0x00, };
