#define glyph0x78_width 8
#define glyph0x78_height 16
static char glyph0x78_bits[] = {
  0x00, 0x00, 0x00, 0x00, 0x00, 0x66, 0x66, 0x66, 0x3C, 0x66, 0x66, 0x66, 
  0x00, 0x00, 0x00, 0x00, };
