#define glyph0xb2_width 8
#define glyph0xb2_height 16
static char glyph0xb2_bits[] = {
  0x00, 0x00, 0x30, 0x18, 0x00, 0x36, 0x4E, 0x06, 0x06, 0x06, 0x06, 0x06, 
  0x00, 0x00, 0x00, 0x00, };
