#define glyph0xac_width 8
#define glyph0xac_height 16
static char glyph0xac_bits[] = {
  0x00, 0x00, 0x1C, 0x18, 0x18, 0x18, 0x38, 0x1C, 0x18, 0x18, 0x18, 0x30, 
  0x00, 0x00, 0x00, 0x00, };
