#define glyph0xb6_width 8
#define glyph0xb6_height 16
static char glyph0xb6_bits[] = {
  0x00, 0x00, 0x6C, 0x6C, 0x4C, 0x3E, 0x0C, 0x0C, 0x0C, 0x0C, 0x4C, 0x38, 
  0x00, 0x00, 0x00, 0x00, };
