#define glyph0x3a_width 8
#define glyph0x3a_height 16
static char glyph0x3a_bits[] = {
  0x00, 0x00, 0x00, 0x00, 0x00, 0x18, 0x18, 0x00, 0x00, 0x00, 0x18, 0x18, 
  0x00, 0x00, 0x00, 0x00, };
