#define glyph0xd3_width 8
#define glyph0xd3_height 16
static char glyph0xd3_bits[] = {
  0x00, 0x00, 0x00, 0x00, 0x00, 0x18, 0x18, 0x00, 0x18, 0x18, 0x0C, 0x06, 
  0x66, 0x3C, 0x00, 0x00, };
