#define glyph0x69_width 8
#define glyph0x69_height 16
static char glyph0x69_bits[] = {
  0x00, 0x00, 0x18, 0x18, 0x00, 0x1C, 0x18, 0x18, 0x18, 0x18, 0x18, 0x30, 
  0x00, 0x00, 0x00, 0x00, };
