#define glyph0xec_width 8
#define glyph0xec_height 16
static char glyph0xec_bits[] = {
  0x00, 0x00, 0x6C, 0x36, 0x00, 0x3E, 0x66, 0x66, 0x66, 0x66, 0x66, 0x66, 
  0x00, 0x00, 0x00, 0x00, };
