#define glyph0x77_width 8
#define glyph0x77_height 16
static char glyph0x77_bits[] = {
  0x00, 0x00, 0x00, 0x00, 0x00, 0x56, 0x56, 0x56, 0x56, 0x56, 0x2C, 0x2C, 
  0x00, 0x00, 0x00, 0x00, };
