#define glyph0xf7_width 8
#define glyph0xf7_height 16
static char glyph0xf7_bits[] = {
  0x00, 0x00, 0x00, 0x7E, 0x66, 0x66, 0x66, 0x66, 0x66, 0x66, 0x66, 0x66, 
  0x00, 0x00, 0x00, 0x00, };
