#define glyph0xb9_width 8
#define glyph0xb9_height 16
static char glyph0xb9_bits[] = {
  0x00, 0x00, 0x24, 0x24, 0x00, 0x66, 0x66, 0x66, 0x66, 0x66, 0x66, 0x7C, 
  0x00, 0x00, 0x00, 0x00, };
