#define glyph0x99_width 8
#define glyph0x99_height 16
static char glyph0x99_bits[] = {
  0x24, 0x24, 0x00, 0x66, 0x66, 0x66, 0x66, 0x66, 0x66, 0x66, 0x66, 0x3C, 
  0x00, 0x00, 0x00, 0x00, };
