#define glyph0xbc_width 8
#define glyph0xbc_height 16
static char glyph0xbc_bits[] = {
  0x00, 0x00, 0x2C, 0x18, 0x00, 0x7E, 0x60, 0x30, 0x18, 0x0C, 0x06, 0x7E, 
  0x00, 0x00, 0x00, 0x00, };
