#define glyph0x38_width 8
#define glyph0x38_height 16
static char glyph0x38_bits[] = {
  0x00, 0x00, 0x00, 0x3C, 0x66, 0x66, 0x66, 0x3C, 0x66, 0x66, 0x66, 0x3C, 
  0x00, 0x00, 0x00, 0x00, };
