#define glyph0xbb_width 8
#define glyph0xbb_height 16
static char glyph0xbb_bits[] = {
  0x00, 0x00, 0x30, 0x18, 0x00, 0x7E, 0x60, 0x30, 0x18, 0x0C, 0x06, 0x7E, 
  0x00, 0x00, 0x00, 0x00, };
