#define glyph0xcb_width 8
#define glyph0xcb_height 16
static char glyph0xcb_bits[] = {
  0x00, 0x00, 0x00, 0x00, 0x18, 0x18, 0x7E, 0x18, 0x18, 0x00, 0x7E, 0x00, 
  0x00, 0x00, 0x00, 0x00, };
