#define glyph0xd9_width 8
#define glyph0xd9_height 16
static char glyph0xd9_bits[] = {
  0x00, 0x18, 0x34, 0x18, 0x30, 0x34, 0x18, 0x00, 0x00, 0x00, 0x00, 0x00, 
  0x00, 0x00, 0x00, 0x00, };
