#define glyph0x22_width 8
#define glyph0x22_height 16
static char glyph0x22_bits[] = {
  0x00, 0x00, 0x00, 0x6C, 0x6C, 0x6C, 0x6C, 0x00, 0x00, 0x00, 0x00, 0x00, 
  0x00, 0x00, 0x00, 0x00, };
