#define glyph0xe7_width 8
#define glyph0xe7_height 16
static char glyph0xe7_bits[] = {
  0x00, 0x00, 0x00, 0x66, 0x66, 0x66, 0x66, 0x66, 0x66, 0x66, 0x66, 0x7C, 
  0x30, 0x60, 0x00, 0x00, };
