#define glyph0x2c_width 8
#define glyph0x2c_height 16
static char glyph0x2c_bits[] = {
  0x00, 0x00, 0x00, 0x00, 0x00, 0x00, 0x00, 0x00, 0x00, 0x00, 0x18, 0x18, 
  0x10, 0x08, 0x00, 0x00, };
