#define glyph0x84_width 8
#define glyph0x84_height 16
static char glyph0x84_bits[] = {
  0x2C, 0x18, 0x00, 0x3C, 0x46, 0x06, 0x06, 0x06, 0x06, 0x06, 0x46, 0x3C, 
  0x00, 0x00, 0x00, 0x00, };
