#define glyph0xf3_width 8
#define glyph0xf3_height 16
static char glyph0xf3_bits[] = {
  0x00, 0x00, 0x3C, 0x66, 0x66, 0x66, 0x7E, 0x66, 0x66, 0x66, 0x66, 0x3C, 
  0x00, 0x00, 0x00, 0x00, };
