#define glyph0x51_width 8
#define glyph0x51_height 16
static char glyph0x51_bits[] = {
  0x00, 0x00, 0x00, 0x3C, 0x66, 0x66, 0x66, 0x66, 0x66, 0x66, 0x76, 0x3C, 
  0x30, 0x60, 0x00, 0x00, };
