#define glyph0xaa_width 8
#define glyph0xaa_height 16
static char glyph0xaa_bits[] = {
  0x30, 0x18, 0x00, 0x1C, 0x18, 0x18, 0x18, 0x18, 0x18, 0x18, 0x18, 0x30, 
  0x00, 0x00, 0x00, 0x00, };
