#define glyph0xa5_width 8
#define glyph0xa5_height 16
static char glyph0xa5_bits[] = {
  0x00, 0x00, 0x70, 0x70, 0x70, 0x3C, 0x36, 0x36, 0x36, 0x36, 0x36, 0x3C, 
  0x00, 0x00, 0x00, 0x00, };
