#define glyph0x23_width 8
#define glyph0x23_height 16
static char glyph0x23_bits[] = {
  0x00, 0x00, 0x00, 0x2C, 0x2C, 0x7E, 0x2C, 0x2C, 0x2C, 0x7E, 0x2C, 0x2C, 
  0x00, 0x00, 0x00, 0x00, };
