#define glyph0xa3_width 8
#define glyph0xa3_height 16
static char glyph0xa3_bits[] = {
  0x00, 0x00, 0x30, 0x18, 0x00, 0x3C, 0x46, 0x06, 0x06, 0x06, 0x46, 0x3C, 
  0x00, 0x00, 0x00, 0x00, };
