#define glyph0xd0_width 8
#define glyph0xd0_height 16
static char glyph0xd0_bits[] = {
  0x00, 0x00, 0x18, 0x24, 0x28, 0x3C, 0x6A, 0x6A, 0x6A, 0x3C, 0x28, 0x24, 
  0x18, 0x00, 0x00, 0x00, };
