#define glyph0xd4_width 8
#define glyph0xd4_height 16
static char glyph0xd4_bits[] = {
  0x00, 0x00, 0x00, 0x00, 0x00, 0x18, 0x18, 0x00, 0x18, 0x18, 0x1C, 0x1E, 
  0x66, 0x3C, 0x00, 0x00, };
