#define glyph0x36_width 8
#define glyph0x36_height 16
static char glyph0x36_bits[] = {
  0x00, 0x00, 0x00, 0x3C, 0x46, 0x06, 0x06, 0x3E, 0x66, 0x66, 0x66, 0x3C, 
  0x00, 0x00, 0x00, 0x00, };
