#define glyph0xa9_width 8
#define glyph0xa9_height 16
static char glyph0xa9_bits[] = {
  0x00, 0x00, 0x30, 0x18, 0x00, 0x1C, 0x18, 0x18, 0x18, 0x18, 0x18, 0x30, 
  0x00, 0x00, 0x00, 0x00, };
