#define glyph0xb4_width 8
#define glyph0xb4_height 16
static char glyph0xb4_bits[] = {
  0x00, 0x00, 0x30, 0x18, 0x00, 0x3C, 0x46, 0x06, 0x3C, 0x60, 0x62, 0x3C, 
  0x00, 0x00, 0x00, 0x00, };
