#define glyph0xf5_width 8
#define glyph0xf5_height 16
static char glyph0xf5_bits[] = {
  0x00, 0x00, 0x00, 0x00, 0x00, 0x7E, 0x2C, 0x2C, 0x2C, 0x2C, 0x2C, 0x4C, 
  0x00, 0x00, 0x00, 0x00, };
