#define glyph0x46_width 8
#define glyph0x46_height 16
static char glyph0x46_bits[] = {
  0x00, 0x00, 0x00, 0x7E, 0x06, 0x06, 0x06, 0x3E, 0x06, 0x06, 0x06, 0x06, 
  0x00, 0x00, 0x00, 0x00, };
