#define glyph0x9a_width 8
#define glyph0x9a_height 16
static char glyph0x9a_bits[] = {
  0x30, 0x18, 0x00, 0x66, 0x66, 0x66, 0x66, 0x3C, 0x18, 0x18, 0x18, 0x18, 
  0x00, 0x00, 0x00, 0x00, };
