#define glyph0xa0_width 8
#define glyph0xa0_height 16
static char glyph0xa0_bits[] = {
  0x00, 0x00, 0x30, 0x18, 0x00, 0x3C, 0x66, 0x60, 0x7C, 0x66, 0x66, 0x7C, 
  0x00, 0x00, 0x00, 0x00, };
