#define glyph0x32_width 8
#define glyph0x32_height 16
static char glyph0x32_bits[] = {
  0x00, 0x00, 0x00, 0x3C, 0x62, 0x60, 0x60, 0x30, 0x18, 0x0C, 0x06, 0x7E, 
  0x00, 0x00, 0x00, 0x00, };
