#define glyph0x95_width 8
#define glyph0x95_height 16
static char glyph0x95_bits[] = {
  0x2C, 0x18, 0x00, 0x3C, 0x46, 0x06, 0x06, 0x3C, 0x60, 0x60, 0x62, 0x3C, 
  0x00, 0x00, 0x00, 0x00, };
