#define glyph0x37_width 8
#define glyph0x37_height 16
static char glyph0x37_bits[] = {
  0x00, 0x00, 0x00, 0x7E, 0x60, 0x60, 0x30, 0x30, 0x18, 0x18, 0x0C, 0x0C, 
  0x00, 0x00, 0x00, 0x00, };
