#define glyph0xd1_width 8
#define glyph0xd1_height 16
static char glyph0xd1_bits[] = {
  0x00, 0x00, 0x00, 0x18, 0x3C, 0x4E, 0x3E, 0x3E, 0x3E, 0x3C, 0x2C, 0x2C, 
  0x00, 0x00, 0x00, 0x00, };
