#define glyph0x62_width 8
#define glyph0x62_height 16
static char glyph0x62_bits[] = {
  0x00, 0x00, 0x06, 0x06, 0x06, 0x3E, 0x66, 0x66, 0x66, 0x66, 0x66, 0x3E, 
  0x00, 0x00, 0x00, 0x00, };
