#define glyph0xb8_width 8
#define glyph0xb8_height 16
static char glyph0xb8_bits[] = {
  0x00, 0x00, 0x18, 0x24, 0x18, 0x66, 0x66, 0x66, 0x66, 0x66, 0x66, 0x7C, 
  0x00, 0x00, 0x00, 0x00, };
