#define glyph0x54_width 8
#define glyph0x54_height 16
static char glyph0x54_bits[] = {
  0x00, 0x00, 0x00, 0x7E, 0x18, 0x18, 0x18, 0x18, 0x18, 0x18, 0x18, 0x18, 
  0x00, 0x00, 0x00, 0x00, };
