#define glyph0xab_width 8
#define glyph0xab_height 16
static char glyph0xab_bits[] = {
  0x00, 0x00, 0x6E, 0x6C, 0x4C, 0x0C, 0x0C, 0x0C, 0x0C, 0x0C, 0x0C, 0x18, 
  0x00, 0x00, 0x00, 0x00, };
