#define glyph0xe5_width 8
#define glyph0xe5_height 16
static char glyph0xe5_bits[] = {
  0x00, 0x00, 0x00, 0x7C, 0x66, 0x76, 0x76, 0x7E, 0x6E, 0x6E, 0x66, 0x3E, 
  0x00, 0x00, 0x00, 0x00, };
