#define glyph0x29_width 8
#define glyph0x29_height 16
static char glyph0x29_bits[] = {
  0x00, 0x00, 0x06, 0x0C, 0x0C, 0x18, 0x18, 0x18, 0x18, 0x18, 0x0C, 0x0C, 
  0x06, 0x00, 0x00, 0x00, };
