#define glyph0xf1_width 8
#define glyph0xf1_height 16
static char glyph0xf1_bits[] = {
  0x00, 0x00, 0x3C, 0x66, 0x66, 0x66, 0x36, 0x66, 0x66, 0x66, 0x66, 0x3E, 
  0x06, 0x06, 0x06, 0x00, };
