#define glyph0x7b_width 8
#define glyph0x7b_height 16
static char glyph0x7b_bits[] = {
  0x00, 0x00, 0x60, 0x30, 0x30, 0x30, 0x30, 0x18, 0x30, 0x30, 0x30, 0x30, 
  0x60, 0x00, 0x00, 0x00, };
