#define glyph0xd2_width 8
#define glyph0xd2_height 16
static char glyph0xd2_bits[] = {
  0x00, 0x00, 0x00, 0x00, 0x00, 0x18, 0x18, 0x00, 0x18, 0x18, 0x18, 0x18, 
  0x18, 0x18, 0x00, 0x00, };
