#define glyph0x82_width 8
#define glyph0x82_height 16
static char glyph0x82_bits[] = {
  0x00, 0x00, 0x00, 0x3C, 0x66, 0x66, 0x66, 0x7E, 0x66, 0x66, 0x66, 0x66, 
  0x60, 0x30, 0x60, 0x00, };
