#define glyph0x71_width 8
#define glyph0x71_height 16
static char glyph0x71_bits[] = {
  0x00, 0x00, 0x00, 0x00, 0x00, 0x7C, 0x66, 0x66, 0x66, 0x66, 0x66, 0x7C, 
  0x60, 0x60, 0x60, 0x00, };
