#define glyph0xe3_width 8
#define glyph0xe3_height 16
static char glyph0xe3_bits[] = {
  0x00, 0x00, 0x00, 0x3C, 0x18, 0x18, 0x18, 0x18, 0x18, 0x18, 0x18, 0x3C, 
  0x18, 0x0C, 0x18, 0x00, };
