#define glyph0x2f_width 8
#define glyph0x2f_height 16
static char glyph0x2f_bits[] = {
  0x00, 0x00, 0x00, 0x60, 0x60, 0x30, 0x30, 0x18, 0x0C, 0x0C, 0x06, 0x06, 
  0x00, 0x00, 0x00, 0x00, };
