#define glyph0x30_width 8
#define glyph0x30_height 16
static char glyph0x30_bits[] = {
  0x00, 0x00, 0x00, 0x3C, 0x66, 0x76, 0x76, 0x6E, 0x6E, 0x66, 0x66, 0x3C, 
  0x00, 0x00, 0x00, 0x00, };
