#define glyph0x1b_width 8
#define glyph0x1b_height 16
static char glyph0x1b_bits[] = {
  0x00, 0x00, 0x00, 0x00, 0x00, 0x00, 0x00, 0x00, 0x00, 0x00, 0x00, 0x00, 
  0x00, 0x00, 0x00, 0xFF, };
