#define glyph0xf2_width 8
#define glyph0xf2_height 16
static char glyph0xf2_bits[] = {
  0x00, 0x00, 0x00, 0x00, 0x00, 0x66, 0x66, 0x66, 0x66, 0x66, 0x3C, 0x18, 
  0x18, 0x18, 0x18, 0x00, };
