#define glyph0x5f_width 8
#define glyph0x5f_height 16
static char glyph0x5f_bits[] = {
  0x00, 0x00, 0x00, 0x00, 0x00, 0x00, 0x00, 0x00, 0x00, 0x00, 0x00, 0x00, 
  0x00, 0xFF, 0x00, 0x00, };
