#define glyph0x2a_width 8
#define glyph0x2a_height 16
static char glyph0x2a_bits[] = {
  0x00, 0x00, 0x00, 0x5A, 0x3C, 0x3C, 0x5A, 0x00, 0x00, 0x00, 0x00, 0x00, 
  0x00, 0x00, 0x00, 0x00, };
