#define glyph0x98_width 8
#define glyph0x98_height 16
static char glyph0x98_bits[] = {
  0x18, 0x24, 0x18, 0x66, 0x66, 0x66, 0x66, 0x66, 0x66, 0x66, 0x66, 0x3C, 
  0x00, 0x00, 0x00, 0x00, };
