#define glyph0x48_width 8
#define glyph0x48_height 16
static char glyph0x48_bits[] = {
  0x00, 0x00, 0x00, 0x66, 0x66, 0x66, 0x66, 0x7E, 0x66, 0x66, 0x66, 0x66, 
  0x00, 0x00, 0x00, 0x00, };
