#define glyph0x1d_width 8
#define glyph0x1d_height 16
static char glyph0x1d_bits[] = {
  0x00, 0x00, 0x00, 0x00, 0x00, 0x00, 0x00, 0x00, 0x00, 0x00, 0x00, 0x00, 
  0x00, 0x00, 0x00, 0xFF, };
