#define glyph0xbf_width 8
#define glyph0xbf_height 16
static char glyph0xbf_bits[] = {
  0x00, 0x00, 0x00, 0x00, 0x00, 0x66, 0x7E, 0x24, 0x24, 0x7E, 0x66, 0x00, 
  0x00, 0x00, 0x00, 0x00, };
