#define glyph0x26_width 8
#define glyph0x26_height 16
static char glyph0x26_bits[] = {
  0x00, 0x00, 0x00, 0x1C, 0x26, 0x06, 0x06, 0x7C, 0x36, 0x36, 0x36, 0x1C, 
  0x00, 0x00, 0x00, 0x00, };
