#define glyph0xf8_width 8
#define glyph0xf8_height 16
static char glyph0xf8_bits[] = {
  0x00, 0x00, 0x00, 0x3C, 0x46, 0x46, 0x46, 0x46, 0x46, 0x46, 0x2C, 0x6E, 
  0x00, 0x00, 0x00, 0x00, };
