#define glyph0xe0_width 8
#define glyph0xe0_height 16
static char glyph0xe0_bits[] = {
  0x18, 0x24, 0x18, 0x3C, 0x66, 0x66, 0x66, 0x7E, 0x66, 0x66, 0x66, 0x66, 
  0x00, 0x00, 0x00, 0x00, };
