#define glyph0x31_width 8
#define glyph0x31_height 16
static char glyph0x31_bits[] = {
  0x00, 0x00, 0x00, 0x18, 0x1C, 0x18, 0x18, 0x18, 0x18, 0x18, 0x18, 0x3C, 
  0x00, 0x00, 0x00, 0x00, };
