#define glyph0x56_width 8
#define glyph0x56_height 16
static char glyph0x56_bits[] = {
  0x00, 0x00, 0x00, 0x66, 0x66, 0x66, 0x66, 0x66, 0x66, 0x36, 0x36, 0x1E, 
  0x00, 0x00, 0x00, 0x00, };
