#define glyph0xd7_width 8
#define glyph0xd7_height 16
static char glyph0xd7_bits[] = {
  0x00, 0x00, 0x00, 0x00, 0x00, 0x30, 0x7E, 0x18, 0x18, 0x7E, 0x0C, 0x00, 
  0x00, 0x00, 0x00, 0x00, };
