#define glyph0xaf_width 8
#define glyph0xaf_height 16
static char glyph0xaf_bits[] = {
  0x00, 0x00, 0x30, 0x18, 0x00, 0x3C, 0x66, 0x66, 0x66, 0x66, 0x66, 0x3C, 
  0x00, 0x00, 0x00, 0x00, };
