#define glyph0x6e_width 8
#define glyph0x6e_height 16
static char glyph0x6e_bits[] = {
  0x00, 0x00, 0x00, 0x00, 0x00, 0x3E, 0x66, 0x66, 0x66, 0x66, 0x66, 0x66, 
  0x00, 0x00, 0x00, 0x00, };
