#define glyph0xe2_width 8
#define glyph0xe2_height 16
static char glyph0xe2_bits[] = {
  0x18, 0x18, 0x00, 0x7E, 0x06, 0x06, 0x06, 0x3E, 0x06, 0x06, 0x06, 0x7E, 
  0x00, 0x00, 0x00, 0x00, };
