#define glyph0x21_width 8
#define glyph0x21_height 16
static char glyph0x21_bits[] = {
  0x00, 0x00, 0x00, 0x18, 0x18, 0x18, 0x18, 0x18, 0x18, 0x00, 0x18, 0x18, 
  0x00, 0x00, 0x00, 0x00, };
