#define glyph0x90_width 8
#define glyph0x90_height 16
static char glyph0x90_bits[] = {
  0x18, 0x34, 0x00, 0x3C, 0x66, 0x66, 0x66, 0x66, 0x66, 0x66, 0x66, 0x3C, 
  0x00, 0x00, 0x00, 0x00, };
