#define glyph0xbe_width 8
#define glyph0xbe_height 16
static char glyph0xbe_bits[] = {
  0x00, 0x00, 0x3C, 0x66, 0x66, 0x66, 0x36, 0x66, 0x66, 0x66, 0x66, 0x36, 
  0x00, 0x00, 0x00, 0x00, };
