#define glyph0x80_width 8
#define glyph0x80_height 16
static char glyph0x80_bits[] = {
  0x30, 0x18, 0x00, 0x3C, 0x66, 0x66, 0x66, 0x7E, 0x66, 0x66, 0x66, 0x66, 
  0x00, 0x00, 0x00, 0x00, };
