#define glyph0x9e_width 8
#define glyph0x9e_height 16
static char glyph0x9e_bits[] = {
  0x00, 0x00, 0x00, 0x7C, 0x66, 0x66, 0x36, 0x66, 0x66, 0x66, 0x66, 0x36, 
  0x00, 0x00, 0x00, 0x00, };
