#define glyph0x96_width 8
#define glyph0x96_height 16
static char glyph0x96_bits[] = {
  0x2C, 0x18, 0x00, 0x7E, 0x18, 0x18, 0x18, 0x18, 0x18, 0x18, 0x18, 0x18, 
  0x00, 0x00, 0x00, 0x00, };
