#define glyph0xf6_width 8
#define glyph0xf6_height 16
static char glyph0xf6_bits[] = {
  0x00, 0x00, 0x00, 0x7E, 0x06, 0x0C, 0x0C, 0x18, 0x0C, 0x0C, 0x06, 0x7E, 
  0x00, 0x00, 0x00, 0x00, };
