#define glyph0x40_width 8
#define glyph0x40_height 16
static char glyph0x40_bits[] = {
  0x00, 0x00, 0x00, 0x3C, 0x66, 0x66, 0x76, 0x76, 0x76, 0x76, 0x06, 0x3C, 
  0x00, 0x00, 0x00, 0x00, };
