#define glyph0xdb_width 8
#define glyph0xdb_height 16
static char glyph0xdb_bits[] = {
  0x00, 0xFF, 0x00, 0x00, 0x00, 0x00, 0x00, 0x00, 0x00, 0x00, 0x00, 0x00, 
  0x00, 0x00, 0x00, 0x00, };
