#define glyph0xde_width 8
#define glyph0xde_height 16
static char glyph0xde_bits[] = {
  0x00, 0x00, 0x00, 0x00, 0x00, 0x00, 0x00, 0x00, 0x55, 0xAA, 0x55, 0xAA, 
  0x55, 0xAA, 0x55, 0xAA, };
