#define glyph0x35_width 8
#define glyph0x35_height 16
static char glyph0x35_bits[] = {
  0x00, 0x00, 0x00, 0x7E, 0x06, 0x06, 0x3E, 0x60, 0x60, 0x60, 0x62, 0x3C, 
  0x00, 0x00, 0x00, 0x00, };
