#define glyph0xcf_width 8
#define glyph0xcf_height 16
static char glyph0xcf_bits[] = {
  0x0F, 0x0F, 0x0F, 0x0F, 0x0F, 0x0F, 0x0F, 0x0F, 0x0F, 0x0F, 0x0F, 0x0F, 
  0x0F, 0x0F, 0x0F, 0x0F, };
