#define glyph0xd6_width 8
#define glyph0xd6_height 16
static char glyph0xd6_bits[] = {
  0x00, 0x00, 0x00, 0x00, 0x18, 0x18, 0x00, 0x7E, 0x00, 0x18, 0x18, 0x00, 
  0x00, 0x00, 0x00, 0x00, };
