#define glyph0xf4_width 8
#define glyph0xf4_height 16
static char glyph0xf4_bits[] = {
  0x00, 0x00, 0x00, 0x00, 0x00, 0x66, 0x66, 0x66, 0x66, 0x66, 0x76, 0x6E, 
  0x06, 0x06, 0x06, 0x00, };
