#define glyph0x3f_width 8
#define glyph0x3f_height 16
static char glyph0x3f_bits[] = {
  0x00, 0x00, 0x00, 0x3C, 0x66, 0x60, 0x30, 0x18, 0x18, 0x00, 0x18, 0x18, 
  0x00, 0x00, 0x00, 0x00, };
