#define glyph0xe1_width 8
#define glyph0xe1_height 16
static char glyph0xe1_bits[] = {
  0x00, 0x00, 0x00, 0x7C, 0x36, 0x36, 0x36, 0x7E, 0x36, 0x36, 0x36, 0x76, 
  0x00, 0x00, 0x00, 0x00, };
