#define glyph0x47_width 8
#define glyph0x47_height 16
static char glyph0x47_bits[] = {
  0x00, 0x00, 0x00, 0x3C, 0x46, 0x06, 0x06, 0x76, 0x66, 0x66, 0x66, 0x3C, 
  0x00, 0x00, 0x00, 0x00, };
