#define glyph0x2e_width 8
#define glyph0x2e_height 16
static char glyph0x2e_bits[] = {
  0x00, 0x00, 0x00, 0x00, 0x00, 0x00, 0x00, 0x00, 0x00, 0x00, 0x18, 0x18, 
  0x00, 0x00, 0x00, 0x00, };
