#define glyph0x63_width 8
#define glyph0x63_height 16
static char glyph0x63_bits[] = {
  0x00, 0x00, 0x00, 0x00, 0x00, 0x3C, 0x46, 0x06, 0x06, 0x06, 0x46, 0x3C, 
  0x00, 0x00, 0x00, 0x00, };
