#define glyph0x73_width 8
#define glyph0x73_height 16
static char glyph0x73_bits[] = {
  0x00, 0x00, 0x00, 0x00, 0x00, 0x3C, 0x46, 0x06, 0x3C, 0x60, 0x62, 0x3C, 
  0x00, 0x00, 0x00, 0x00, };
