#define glyph0xd5_width 8
#define glyph0xd5_height 16
static char glyph0xd5_bits[] = {
  0x00, 0x00, 0x00, 0x3C, 0x66, 0x78, 0x38, 0x18, 0x18, 0x00, 0x18, 0x18, 
  0x00, 0x00, 0x00, 0x00, };
