#define glyph0xca_width 8
#define glyph0xca_height 16
static char glyph0xca_bits[] = {
  0x18, 0x18, 0x18, 0x18, 0x18, 0x18, 0x18, 0xFF, 0x18, 0x18, 0x18, 0x18, 
  0x18, 0x18, 0x18, 0x18, };
