#define glyph0x5c_width 8
#define glyph0x5c_height 16
static char glyph0x5c_bits[] = {
  0x00, 0x00, 0x00, 0x06, 0x06, 0x0C, 0x0C, 0x18, 0x30, 0x30, 0x60, 0x60, 
  0x00, 0x00, 0x00, 0x00, };
