#define glyph0x5d_width 8
#define glyph0x5d_height 16
static char glyph0x5d_bits[] = {
  0x00, 0x00, 0x1E, 0x18, 0x18, 0x18, 0x18, 0x18, 0x18, 0x18, 0x18, 0x18, 
  0x1E, 0x00, 0x00, 0x00, };
