#define glyph0x65_width 8
#define glyph0x65_height 16
static char glyph0x65_bits[] = {
  0x00, 0x00, 0x00, 0x00, 0x00, 0x3C, 0x66, 0x66, 0x7E, 0x06, 0x46, 0x3C, 
  0x00, 0x00, 0x00, 0x00, };
